<svg width="1633" height="273" viewBox="0 0 1633 273" fill="none" xmlns="http://www.w3.org/2000/svg">
<path d="M198.6 207H125.1V195H136.2C136.2 163.8 130 140.8 117.6 126C107.4 113.8 93.9 107.7 77.1 107.7V195H90.9V207H9.3V195H32.7V19.5H9.3V7.49999H137.4C153.4 7.49999 164 8.59999 169.2 10.8C177.2 14.2 181.2 21.6 181.2 33C181.2 48.6 175 62.2 162.6 73.8C147.8 87.6 125.7 96.4 96.3 100.2V104.4C120.1 104.4 140.2 111.4 156.6 125.4C175.8 141.8 185.4 165 185.4 195H198.6V207ZM131.4 36.9C131.4 29.5 128.6 24.5 123 21.9C119.6 20.3 115.1 19.5 109.5 19.5H77.1V86.7C92.5 86.7 105.6 81.4 116.4 70.8C126.4 61 131.4 49.7 131.4 36.9ZM1124.21 95.4H1134.71L1138.91 87.6L1143.41 77.4L1149.41 65.1C1161.01 42.1 1168.41 28.4 1171.61 24C1181.41 10.4 1192.91 3.59999 1206.11 3.59999C1215.51 3.59999 1223.81 5.29999 1231.01 8.7C1229.01 14.1 1227.01 19.5 1225.01 24.9C1224.41 26.9 1224.11 29.9 1224.11 33.9C1223.51 38.7 1223.21 43.3 1223.21 47.7H1217.51L1208.21 44.1C1206.41 43.1 1204.21 42.3 1201.61 41.7C1199.21 40.9 1196.31 40.5 1192.91 40.5C1181.71 40.5 1166.21 59.9 1146.41 98.7C1177.61 105.7 1199.11 118.1 1210.91 135.9C1220.91 150.9 1225.91 170.6 1225.91 195H1243.01V207H1165.61V195H1176.71C1176.71 167.2 1173.81 147.3 1168.01 135.3C1160.41 119.7 1145.81 109.8 1124.21 105.6V195H1141.91V207H1056.41V195H1080.11V19.5H1056.41V7.49999H1144.01V19.5H1124.21V95.4Z" fill="#DB2E28"/>
<path d="M228.778 201.6C224.978 197 222.378 191.7 220.978 185.7C219.778 179.7 219.178 173.2 219.178 166.2C219.178 163.4 219.178 160.6 219.178 157.8C219.178 154.8 219.278 151.9 219.478 149.1C219.478 131.9 220.378 115.2 222.178 99C224.178 82.6 227.378 74.4 231.778 74.4H248.278C253.678 74.4 257.178 75.2 258.778 76.8C259.778 77.8 260.078 79.7 259.678 82.5C259.078 88.1 258.478 93.6 257.878 99C256.078 117.4 255.178 134.8 255.178 151.2C255.178 154.4 255.078 157.6 254.878 160.8C254.878 164 254.878 167.2 254.878 170.4C254.878 176.4 255.178 181.7 255.778 186.3C256.578 190.9 257.678 193.9 259.078 195.3C260.478 196.7 262.778 197.7 265.978 198.3C269.378 198.9 273.178 199.2 277.378 199.2C285.378 199.2 290.778 198.4 293.578 196.8C296.378 195 298.278 192.2 299.278 188.4C300.278 184.4 300.778 179.8 300.778 174.6C300.778 170.8 300.678 166.9 300.478 162.9C300.278 158.7 300.078 154.5 299.878 150.3C299.878 113.5 300.378 91.7 301.378 84.9C302.378 77.9 305.578 74.4 310.978 74.4H327.478C332.878 74.4 336.378 75.2 337.978 76.8C338.978 77.8 339.278 79.7 338.878 82.5C336.878 97.3 335.578 110.2 334.978 121.2C334.578 132 334.378 142 334.378 151.2V165C334.378 171.8 333.978 177.7 333.178 182.7C332.578 187.7 331.178 193.2 328.978 199.2C327.778 202.8 322.378 205.5 312.778 207.3C303.378 209.3 292.378 210.3 279.778 210.3C266.778 210.3 255.578 209.5 246.178 207.9C236.778 206.5 230.978 204.4 228.778 201.6ZM365.585 232.5L358.385 226.2C367.785 210.6 377.185 200.1 386.585 194.7C392.185 191.5 398.885 189.9 406.685 189.9C410.685 189.9 414.485 190.5 418.085 191.7C421.685 192.7 425.585 193.9 429.785 195.3C434.185 196.7 438.485 197.4 442.685 197.4C451.685 197.4 458.585 193.4 463.385 185.4C466.985 179.2 468.785 172 468.785 163.8C468.785 157.4 466.485 152.1 461.885 147.9C457.285 143.7 450.685 141.6 442.085 141.6C440.085 141.6 437.785 141.8 435.185 142.2C432.785 142.6 430.585 143 428.585 143.4C415.985 146 405.685 147.3 397.685 147.3C389.485 147.3 382.285 145.1 376.085 140.7C367.485 134.7 363.185 125.5 363.185 113.1C363.185 96.7 371.085 85 386.885 78C396.885 73.6 408.885 71.4 422.885 71.4C437.685 71.4 451.685 74.7 464.885 81.3C476.685 87.3 482.585 92.4 482.585 96.6C482.585 98.4 478.485 101.2 470.285 105C462.085 108.8 456.185 110.7 452.585 110.7C451.985 110.7 451.485 110.4 451.085 109.8C450.885 109.2 450.085 107.1 448.685 103.5C446.285 97.5 444.085 93.3 442.085 90.9C438.285 86.1 433.485 83.7 427.685 83.7C419.685 83.7 413.385 85.9 408.785 90.3C404.385 94.5 402.185 100.1 402.185 107.1C402.185 114.3 404.785 120.2 409.985 124.8C415.385 129.2 422.685 131.4 431.885 131.4C435.085 131.4 437.285 131.3 438.485 131.1C439.885 130.9 443.185 130.2 448.385 129C453.785 127.6 458.385 126.4 462.185 125.4C466.185 124.4 469.685 123.9 472.685 123.9C485.685 123.9 495.385 128.7 501.785 138.3C506.385 145.3 508.685 153.1 508.685 161.7C508.685 173.1 505.085 183.4 497.885 192.6C487.285 206 470.985 212.7 448.985 212.7C444.985 212.7 441.285 212.4 437.885 211.8C432.885 210.6 429.085 209.8 426.485 209.4L414.485 208.5C404.885 208.5 396.585 210.2 389.585 213.6C384.785 216 379.585 219.8 373.985 225L365.585 232.5ZM531.405 232.5L524.205 226.2C533.605 210.6 543.005 200.1 552.405 194.7C558.005 191.5 564.705 189.9 572.505 189.9C576.505 189.9 580.305 190.5 583.905 191.7C587.505 192.7 591.405 193.9 595.605 195.3C600.005 196.7 604.305 197.4 608.505 197.4C617.505 197.4 624.405 193.4 629.205 185.4C632.805 179.2 634.605 172 634.605 163.8C634.605 157.4 632.305 152.1 627.705 147.9C623.105 143.7 616.505 141.6 607.905 141.6C605.905 141.6 603.605 141.8 601.005 142.2C598.605 142.6 596.405 143 594.405 143.4C581.805 146 571.505 147.3 563.505 147.3C555.305 147.3 548.105 145.1 541.905 140.7C533.305 134.7 529.005 125.5 529.005 113.1C529.005 96.7 536.905 85 552.705 78C562.705 73.6 574.705 71.4 588.705 71.4C603.505 71.4 617.505 74.7 630.705 81.3C642.505 87.3 648.405 92.4 648.405 96.6C648.405 98.4 644.305 101.2 636.105 105C627.905 108.8 622.005 110.7 618.405 110.7C617.805 110.7 617.305 110.4 616.905 109.8C616.705 109.2 615.905 107.1 614.505 103.5C612.105 97.5 609.905 93.3 607.905 90.9C604.105 86.1 599.305 83.7 593.505 83.7C585.505 83.7 579.205 85.9 574.605 90.3C570.205 94.5 568.005 100.1 568.005 107.1C568.005 114.3 570.605 120.2 575.805 124.8C581.205 129.2 588.505 131.4 597.705 131.4C600.905 131.4 603.105 131.3 604.305 131.1C605.705 130.9 609.005 130.2 614.205 129C619.605 127.6 624.205 126.4 628.005 125.4C632.005 124.4 635.505 123.9 638.505 123.9C651.505 123.9 661.205 128.7 667.605 138.3C672.205 145.3 674.505 153.1 674.505 161.7C674.505 173.1 670.905 183.4 663.705 192.6C653.105 206 636.805 212.7 614.805 212.7C610.805 212.7 607.105 212.4 603.705 211.8C598.705 210.6 594.905 209.8 592.305 209.4L580.305 208.5C570.705 208.5 562.405 210.2 555.405 213.6C550.605 216 545.405 219.8 539.805 225L531.405 232.5ZM730.226 207H717.026C713.426 207 710.926 205.8 709.526 203.4C708.126 201 707.426 195.2 707.426 186C707.426 177.6 707.126 166.9 706.526 153.9C706.126 140.9 705.926 133.2 705.926 130.8C705.926 106 706.726 90.4 708.326 84C709.926 77.6 712.826 74.4 717.026 74.4L726.626 74.7L738.326 74.1H741.326C743.926 74.5 745.226 75.9 745.226 78.3C744.026 83.9 742.926 90.8 741.926 99C741.126 107.2 740.726 117.5 740.726 129.9C740.726 147.1 740.926 159.9 741.326 168.3C741.926 176.5 743.126 186.7 744.926 198.9C745.526 202.1 745.026 204.3 743.426 205.5C741.826 206.5 737.426 207 730.226 207ZM717.026 21.9H726.626L741.326 21.6C743.926 21.6 745.226 23 745.226 25.8L744.926 39.3L745.226 52.5C745.226 55.5 743.926 57 741.326 57H738.326L726.626 56.7L717.026 57C714.026 57 712.126 56.1 711.326 54.3C710.526 52.5 710.126 47.4 710.126 39C710.126 31 710.626 26.2 711.626 24.6C712.626 22.8 714.426 21.9 717.026 21.9ZM828.033 74.7H857.133C859.133 74.7 860.333 75.2 860.733 76.2C860.733 78.4 860.733 80.2 860.733 81.6C860.933 82.8 861.533 85.4 862.533 89.4L867.033 105.9L869.133 114.3C875.533 139.9 881.333 160.5 886.533 176.1C889.933 185.7 893.333 195.2 896.733 204.6C896.733 206.2 894.833 207 891.033 207H861.933C860.533 207 859.533 205.8 858.933 203.4C858.533 201 858.233 198.9 858.033 197.1C856.833 193.7 855.833 190.6 855.033 187.8L851.733 176.7L848.133 163.8C843.933 177.8 838.733 188.5 832.533 195.9C824.533 205.5 814.733 210.3 803.133 210.3C792.333 210.3 784.233 205.9 778.833 197.1C774.633 190.3 772.533 182.3 772.533 173.1C772.533 163.7 777.133 152.5 786.333 139.5C789.533 134.9 796.833 126.1 808.233 113.1C809.233 111.9 813.333 107.4 820.533 99.6C823.733 96.2 825.333 93.5 825.333 91.5C825.333 90.3 825.133 89 824.733 87.6C824.533 86 824.033 84.2 823.233 82.2C822.633 80 822.333 78 822.333 76.2C822.333 75.2 824.233 74.7 828.033 74.7ZM830.433 102.6C822.233 111.6 815.433 121 810.033 130.8C804.633 140.4 801.933 148.4 801.933 154.8C801.933 159.6 803.233 164.1 805.833 168.3C808.633 172.3 812.933 174.3 818.733 174.3C826.133 174.3 832.233 171.5 837.033 165.9C841.033 161.3 843.033 156.4 843.033 151.2C843.033 148 842.433 144.4 841.233 140.4C840.033 136.4 839.033 133.1 838.233 130.5L834.633 117.9L830.433 102.6ZM934.13 207.6L925.73 207.9C921.93 207.9 919.33 205.6 917.93 201C915.73 193.2 914.63 176.6 914.63 151.2C914.63 142.6 914.53 134.5 914.33 126.9C914.13 119.3 913.93 111.8 913.73 104.4C913.73 93.4 914.33 85.3 915.53 80.1C916.73 74.9 918.53 72 920.93 71.4C923.53 70.8 925.43 70.5 926.63 70.5C927.83 70.5 928.73 70.5 929.33 70.5C934.33 70.5 938.03 71.9 940.43 74.7C941.23 75.5 942.03 77 942.83 79.2C945.03 75.6 949.13 73.1 955.13 71.7C961.33 70.3 968.93 69.6 977.93 69.6C985.13 69.6 990.93 69.8 995.33 70.2C999.73 70.6 1003.63 71.1 1007.03 71.7C1008.03 71.5 1009.53 71.4 1011.53 71.4C1017.53 71.4 1022.53 72.7 1026.53 75.3C1030.53 77.9 1032.53 80.6 1032.53 83.4C1031.33 93.8 1030.23 105 1029.23 117C1028.23 129 1027.73 140.8 1027.73 152.4C1027.73 158.6 1027.93 164.6 1028.33 170.4C1028.73 176.2 1029.13 181 1029.53 184.8C1030.13 188.6 1030.93 193.1 1031.93 198.3C1032.33 200.3 1032.53 202.1 1032.53 203.7C1032.53 206.3 1031.33 207.8 1028.93 208.2H1025.93C1024.33 208 1022.73 207.8 1021.13 207.6C1019.73 207.6 1018.03 207.6 1016.03 207.6H1012.73L1004.03 207.9C999.63 207.9 996.73 204.9 995.33 198.9C993.93 192.7 993.23 176.8 993.23 151.2C993.23 141 993.93 131.1 995.33 121.5C996.73 111.7 998.23 101.5 999.83 90.9C999.83 87.7 999.13 85.5 997.73 84.3C995.53 82.9 992.83 81.9 989.63 81.3C986.43 80.5 983.03 80.1 979.43 80.1C973.83 80.1 967.53 80.9 960.53 82.5C958.33 82.9 955.43 83.7 951.83 84.9L950.63 112.5C950.63 118.5 950.33 126.2 949.73 135.6C949.33 144.8 949.13 150.4 949.13 152.4C949.13 161.6 949.23 167.7 949.43 170.7C949.83 173.5 950.73 179.9 952.13 189.9C952.73 193.3 953.23 195.7 953.63 197.1C954.03 198.5 954.23 199.6 954.23 200.4C954.23 202.4 953.43 204.3 951.83 206.1C950.23 207.9 947.73 208.8 944.33 208.8C942.93 208.8 941.03 208.6 938.63 208.2C936.23 207.8 934.73 207.6 934.13 207.6ZM1293.9 207H1280.7C1277.1 207 1274.6 205.8 1273.2 203.4C1271.8 201 1271.1 195.2 1271.1 186C1271.1 177.6 1270.8 166.9 1270.2 153.9C1269.8 140.9 1269.6 133.2 1269.6 130.8C1269.6 106 1270.4 90.4 1272 84C1273.6 77.6 1276.5 74.4 1280.7 74.4L1290.3 74.7L1302 74.1H1305C1307.6 74.5 1308.9 75.9 1308.9 78.3C1307.7 83.9 1306.6 90.8 1305.6 99C1304.8 107.2 1304.4 117.5 1304.4 129.9C1304.4 147.1 1304.6 159.9 1305 168.3C1305.6 176.5 1306.8 186.7 1308.6 198.9C1309.2 202.1 1308.7 204.3 1307.1 205.5C1305.5 206.5 1301.1 207 1293.9 207ZM1280.7 21.9H1290.3L1305 21.6C1307.6 21.6 1308.9 23 1308.9 25.8L1308.6 39.3L1308.9 52.5C1308.9 55.5 1307.6 57 1305 57H1302L1290.3 56.7L1280.7 57C1277.7 57 1275.8 56.1 1275 54.3C1274.2 52.5 1273.8 47.4 1273.8 39C1273.8 31 1274.3 26.2 1275.3 24.6C1276.3 22.8 1278.1 21.9 1280.7 21.9ZM1335.6 232.5L1328.4 226.2C1337.8 210.6 1347.2 200.1 1356.6 194.7C1362.2 191.5 1368.9 189.9 1376.7 189.9C1380.7 189.9 1384.5 190.5 1388.1 191.7C1391.7 192.7 1395.6 193.9 1399.8 195.3C1404.2 196.7 1408.5 197.4 1412.7 197.4C1421.7 197.4 1428.6 193.4 1433.4 185.4C1437 179.2 1438.8 172 1438.8 163.8C1438.8 157.4 1436.5 152.1 1431.9 147.9C1427.3 143.7 1420.7 141.6 1412.1 141.6C1410.1 141.6 1407.8 141.8 1405.2 142.2C1402.8 142.6 1400.6 143 1398.6 143.4C1386 146 1375.7 147.3 1367.7 147.3C1359.5 147.3 1352.3 145.1 1346.1 140.7C1337.5 134.7 1333.2 125.5 1333.2 113.1C1333.2 96.7 1341.1 85 1356.9 78C1366.9 73.6 1378.9 71.4 1392.9 71.4C1407.7 71.4 1421.7 74.7 1434.9 81.3C1446.7 87.3 1452.6 92.4 1452.6 96.6C1452.6 98.4 1448.5 101.2 1440.3 105C1432.1 108.8 1426.2 110.7 1422.6 110.7C1422 110.7 1421.5 110.4 1421.1 109.8C1420.9 109.2 1420.1 107.1 1418.7 103.5C1416.3 97.5 1414.1 93.3 1412.1 90.9C1408.3 86.1 1403.5 83.7 1397.7 83.7C1389.7 83.7 1383.4 85.9 1378.8 90.3C1374.4 94.5 1372.2 100.1 1372.2 107.1C1372.2 114.3 1374.8 120.2 1380 124.8C1385.4 129.2 1392.7 131.4 1401.9 131.4C1405.1 131.4 1407.3 131.3 1408.5 131.1C1409.9 130.9 1413.2 130.2 1418.4 129C1423.8 127.6 1428.4 126.4 1432.2 125.4C1436.2 124.4 1439.7 123.9 1442.7 123.9C1455.7 123.9 1465.4 128.7 1471.8 138.3C1476.4 145.3 1478.7 153.1 1478.7 161.7C1478.7 173.1 1475.1 183.4 1467.9 192.6C1457.3 206 1441 212.7 1419 212.7C1415 212.7 1411.3 212.4 1407.9 211.8C1402.9 210.6 1399.1 209.8 1396.5 209.4L1384.5 208.5C1374.9 208.5 1366.6 210.2 1359.6 213.6C1354.8 216 1349.6 219.8 1344 225L1335.6 232.5ZM1557.53 74.7H1586.63C1588.63 74.7 1589.83 75.2 1590.23 76.2C1590.23 78.4 1590.23 80.2 1590.23 81.6C1590.43 82.8 1591.03 85.4 1592.03 89.4L1596.53 105.9L1598.63 114.3C1605.03 139.9 1610.83 160.5 1616.03 176.1C1619.43 185.7 1622.83 195.2 1626.23 204.6C1626.23 206.2 1624.33 207 1620.53 207H1591.43C1590.03 207 1589.03 205.8 1588.43 203.4C1588.03 201 1587.73 198.9 1587.53 197.1C1586.33 193.7 1585.33 190.6 1584.53 187.8L1581.23 176.7L1577.63 163.8C1573.43 177.8 1568.23 188.5 1562.03 195.9C1554.03 205.5 1544.23 210.3 1532.63 210.3C1521.83 210.3 1513.73 205.9 1508.33 197.1C1504.13 190.3 1502.03 182.3 1502.03 173.1C1502.03 163.7 1506.63 152.5 1515.83 139.5C1519.03 134.9 1526.33 126.1 1537.73 113.1C1538.73 111.9 1542.83 107.4 1550.03 99.6C1553.23 96.2 1554.83 93.5 1554.83 91.5C1554.83 90.3 1554.63 89 1554.23 87.6C1554.03 86 1553.53 84.2 1552.73 82.2C1552.13 80 1551.83 78 1551.83 76.2C1551.83 75.2 1553.73 74.7 1557.53 74.7ZM1559.93 102.6C1551.73 111.6 1544.93 121 1539.53 130.8C1534.13 140.4 1531.43 148.4 1531.43 154.8C1531.43 159.6 1532.73 164.1 1535.33 168.3C1538.13 172.3 1542.43 174.3 1548.23 174.3C1555.63 174.3 1561.73 171.5 1566.53 165.9C1570.53 161.3 1572.53 156.4 1572.53 151.2C1572.53 148 1571.93 144.4 1570.73 140.4C1569.53 136.4 1568.53 133.1 1567.72 130.5L1564.13 117.9L1559.93 102.6Z" fill="#343432"/>
</svg>
