<svg width="45" height="42" viewBox="0 0 45 42" fill="none" xmlns="http://www.w3.org/2000/svg">
<path id="Soft Star" d="M21.8996 0.497829C21.984 -0.165943 23.016 -0.165943 23.1005 0.497829L23.8084 6.06628C24.7225 13.2566 30.7965 18.9257 38.5004 19.7789L44.4665 20.4396C45.1778 20.5184 45.1778 21.4816 44.4665 21.5604L38.5004 22.2211C30.7965 23.0743 24.7225 28.7434 23.8084 35.9337L23.1005 41.5021C23.016 42.166 21.984 42.166 21.8996 41.5021L21.1916 35.9337C20.2775 28.7434 14.2035 23.0743 6.49958 22.2211L0.533388 21.5604C-0.177796 21.4816 -0.177796 20.5184 0.533388 20.4396L6.49958 19.7789C14.2035 18.9257 20.2775 13.2566 21.1916 6.06628L21.8996 0.497829Z" fill="#DB2E28"/>
</svg>
